<?xml version="1.0" encoding="iso-8859-1"?>
<!-- Generator: Adobe Illustrator 21.0.0, SVG Export Plug-In . SVG Version: 6.00 Build 0)  -->
<svg xmlns="http://www.w3.org/2000/svg" xmlns:xlink="http://www.w3.org/1999/xlink" version="1.1" id="Capa_1" x="0px" y="0px" viewBox="0 0 511.375 511.375" style="enable-background:new 0 0 511.375 511.375;" xml:space="preserve" width="512" height="512">
<g>
	<path style="fill:#FF3D43;" d="M400.289,0H81.086c-4.142,0-7.5,3.357-7.5,7.5v496.375c0,4.143,3.358,7.5,7.5,7.5h319.202   c20.678,0,37.5-16.822,37.5-37.5V37.5C437.789,16.822,420.966,0,400.289,0z"/>
	<path style="fill:#D72E2E;" d="M400.289,0H367.04c20.678,0,37.5,16.822,37.5,37.5v436.375c0,20.678-16.822,37.5-37.5,37.5h33.249   c20.678,0,37.5-16.822,37.5-37.5V37.5C437.789,16.822,420.966,0,400.289,0z"/>
	<g>
		<path style="fill:#FFF5CF;" d="M364.982,368.971H146.393c-4.142,0-7.5-3.357-7.5-7.5s3.358-7.5,7.5-7.5h218.589    c4.142,0,7.5,3.357,7.5,7.5S369.124,368.971,364.982,368.971z"/>
		<path style="fill:#FFF5CF;" d="M335.518,411.683h-159.66c-4.142,0-7.5-3.357-7.5-7.5c0-4.143,3.358-7.5,7.5-7.5h159.66    c4.142,0,7.5,3.357,7.5,7.5C343.018,408.325,339.66,411.683,335.518,411.683z"/>
	</g>
	<path style="fill:#FFDF65;" d="M255.688,76.576c-64.291,0-116.595,52.304-116.595,116.595c0,64.291,52.304,116.595,116.595,116.595   s116.595-52.304,116.595-116.595C372.282,128.88,319.978,76.576,255.688,76.576z"/>
	<path style="fill:#FFCD2C;" d="M255.688,76.576c-5.368,0-10.65,0.373-15.827,1.079c56.831,7.747,100.768,56.593,100.768,115.517   c0,58.923-43.937,107.77-100.768,115.517c5.177,0.706,10.459,1.078,15.827,1.078c64.291,0,116.595-52.304,116.595-116.595   S319.978,76.576,255.688,76.576z"/>
	<path style="fill:#FFBB64;" d="M226.264,80.34c-15.162,23.69-25.227,65.362-25.227,112.832c0,47.469,10.066,89.141,25.227,112.832   c9.403,2.454,19.263,3.764,29.424,3.764c9.841,0,19.399-1.231,28.533-3.537c15.243-23.651,25.375-65.436,25.375-113.058   c0-47.622-10.131-89.408-25.375-113.058c-9.135-2.306-18.693-3.537-28.534-3.537C245.527,76.576,235.667,77.886,226.264,80.34z"/>
	<path style="fill:#FFAD47;" d="M252.565,76.619c16.565,22.868,27.761,66.486,27.761,116.553c0,50.067-11.197,93.684-27.761,116.553   c1.038,0.027,2.078,0.043,3.123,0.043c9.841,0,19.399-1.231,28.534-3.538c15.243-23.65,25.375-65.436,25.375-113.058   c0-47.622-10.131-89.408-25.375-113.058c-9.135-2.306-18.693-3.537-28.534-3.537C254.643,76.576,253.603,76.592,252.565,76.619z"/>
	<path style="fill:#FF3D43;" d="M364.147,236.495c-15.829-6.026-33.496-10.652-52.216-13.749c0.867-9.601,1.327-19.5,1.327-29.574   c0-10.074-0.46-19.973-1.327-29.575c18.719-3.097,36.386-7.724,52.215-13.749c-1.877-4.681-4.05-9.212-6.493-13.573   c-14.404,5.389-30.432,9.565-47.428,12.416c-2.548-18.031-6.656-34.597-12.149-48.618c-2.811-7.175-5.931-13.491-9.303-18.916   c-7.396-2.188-15.096-3.662-23.019-4.342c12.538,9.66,24.382,36.547,29.645,73.991c-12.898,1.533-26.218,2.333-39.712,2.333   c-13.494,0-26.814-0.8-39.712-2.333c5.263-37.445,17.107-64.331,29.645-73.991c-7.923,0.68-15.623,2.153-23.019,4.342   c-3.371,5.424-6.491,11.74-9.303,18.916c-5.494,14.022-9.601,30.587-12.149,48.618c-16.996-2.851-33.023-7.027-47.428-12.416   c-2.443,4.361-4.616,8.891-6.493,13.573c15.829,6.026,33.496,10.652,52.215,13.749c-0.867,9.601-1.327,19.501-1.327,29.575   c0,10.074,0.46,19.973,1.327,29.574c-18.719,3.097-36.386,7.723-52.216,13.749c1.877,4.682,4.05,9.212,6.493,13.574   c14.405-5.389,30.432-9.565,47.428-12.417c2.548,18.031,6.656,34.597,12.149,48.619c2.812,7.175,5.931,13.491,9.303,18.916   c7.396,2.188,15.095,3.662,23.019,4.342c-12.538-9.66-24.382-36.547-29.645-73.991c12.898-1.532,26.218-2.333,39.712-2.333   s26.814,0.8,39.712,2.333c-5.263,37.445-17.107,64.332-29.645,73.992c7.923-0.68,15.622-2.154,23.019-4.342   c3.372-5.424,6.491-11.74,9.303-18.916c5.494-14.022,9.601-30.587,12.149-48.619c16.996,2.851,33.023,7.027,47.428,12.416   C360.097,245.707,362.27,241.176,364.147,236.495z M255.688,218.204c-14.046,0-27.929,0.841-41.398,2.441   c-0.758-8.722-1.173-17.898-1.173-27.474s0.415-18.752,1.173-27.474c13.469,1.601,27.352,2.442,41.398,2.442   c14.046,0,27.928-0.841,41.398-2.442c0.758,8.722,1.173,17.898,1.173,27.474s-0.415,18.751-1.173,27.474   C283.616,219.045,269.733,218.204,255.688,218.204z"/>
</g>















</svg>
